<?xml version="1.0" encoding="UTF-8" standalone="no"?>
<svg
    viewBox="0 0 500 500"
  >
  <g
      id="imagebot_2"
      label="Layer 1"
    >
    <path
        id="imagebot_3"
        fill-rule="evenodd"
        fill="#161413"
        d="m221.96 59.31v54.36 54.38 54.36h54.37v-54.36-54.38-54.36h-54.37zm-54.37-54.372h54.37 54.37 54.36v54.372 54.36 54.38 54.36 54.36 54.37 54.37 54.36 54.37h-54.36v-54.37-54.36-54.37-54.37h-54.37v54.37 54.37 54.36 54.37h-54.37v-54.37-54.36-54.37-54.37-54.36-54.36-54.38-54.36-54.372zm-163.1 0h54.372 54.362v54.372h-54.361v54.36 54.38 54.36h54.361v54.36h-54.361v54.37 54.37 54.36h54.361v54.37h-54.361-54.372l-0.0005-54.37v-54.36-54.37-54.37-54.36-54.36-54.38-54.36-54.372zm380.57 0h54.37 54.37v54.372h-54.37v54.36 54.38 54.36 54.36 54.37 54.37 54.36h54.37v54.37h-54.37-54.37v-54.37-54.36-54.37-54.37-54.36-54.36-54.38-54.36-54.372z"
        label="Layer 1"
    />
  </g>
</svg>
